<?xml version="1.0" encoding="UTF-8" standalone="no"?>
<!-- Created with Inkscape (http://www.inkscape.org/) -->

<svg
   xmlns:dc="http://purl.org/dc/elements/1.1/"
   xmlns:cc="http://creativecommons.org/ns#"
   xmlns:rdf="http://www.w3.org/1999/02/22-rdf-syntax-ns#"
   xmlns:svg="http://www.w3.org/2000/svg"
   xmlns="http://www.w3.org/2000/svg"
   xmlns:sodipodi="http://sodipodi.sourceforge.net/DTD/sodipodi-0.dtd"
   xmlns:inkscape="http://www.inkscape.org/namespaces/inkscape"
   width="157.46875"
   height="110.4725"
   id="svg2"
   version="1.1"
   inkscape:version="0.48.4 r9939"
   sodipodi:docname="Neues Dokument 1">
  <defs
     id="defs4" />
  <sodipodi:namedview
     id="base"
     pagecolor="#ffffff"
     bordercolor="#666666"
     borderopacity="1.0"
     inkscape:pageopacity="0.0"
     inkscape:pageshadow="2"
     inkscape:zoom="8.5299498"
     inkscape:cx="78.73438"
     inkscape:cy="55.186254"
     inkscape:document-units="px"
     inkscape:current-layer="layer1"
     showgrid="false"
     fit-margin-top="1.3"
     fit-margin-left="1.1"
     fit-margin-right="1.1"
     fit-margin-bottom="1.2"
     inkscape:window-width="1920"
     inkscape:window-height="1138"
     inkscape:window-x="-8"
     inkscape:window-y="-8"
     inkscape:window-maximized="1" />
  <metadata
     id="metadata7">
    <rdf:RDF>
      <cc:Work
         rdf:about="">
        <dc:format>image/svg+xml</dc:format>
        <dc:type
           rdf:resource="http://purl.org/dc/dcmitype/StillImage" />
        <dc:title></dc:title>
      </cc:Work>
    </rdf:RDF>
  </metadata>
  <g
     inkscape:label="Ebene 1"
     inkscape:groupmode="layer"
     id="layer1"
     transform="translate(-271.26562,-477.07595)">
    <g
       transform="matrix(1.25,0,0,-1.25,-14.578125,1075.0972)"
       inkscape:label="Gefoerdert_vom_BMBF"
       id="g2993">
      <g
         transform="scale(0.1,0.1)"
         id="g2995">
        <path
           id="path2997"
           style="fill:#231f20;fill-opacity:1;fill-rule:nonzero;stroke:none"
           d="m 2725.34,4209.04 c 0,-9.4 -6.17,-13.09 -11.09,-13.09 -6.5,0 -9.64,4.59 -9.64,11.41 l 0,39.21 -9.18,0 0,-43.12 c 0,-9.63 5.37,-14.56 15.23,-14.56 5.93,0 11.31,2.8 14.34,7.95 l 0.34,0 0,-6.83 9.74,0 c -0.34,3.93 -0.56,7.84 -0.56,11.76 l 0,44.8 -9.18,0 0,-37.53"
           inkscape:connector-curvature="0" />
        <path
           id="path2999"
           style="fill:#231f20;fill-opacity:1;fill-rule:nonzero;stroke:none"
           d="m 2790.97,4190.01 0,39.2 c 0,11.2 -3.02,18.48 -15.12,18.48 -7.29,0 -11.54,-2.01 -15.12,-8.4 l -0.44,0 0,7.28 -9.75,0 c 0.34,-3.93 0.55,-7.83 0.55,-11.77 l 0,-44.79 9.2,0 0,33.5 c 0,7.72 1.45,16.68 11.53,16.68 7.83,0 9.96,-4.94 9.96,-10.98 l 0,-39.2 9.19,0 0,0"
           inkscape:connector-curvature="0" />
        <path
           id="path3001"
           style="fill:#231f20;fill-opacity:1;fill-rule:nonzero;stroke:none"
           d="m 2836.11,4220.59 c 0,-11.42 0,-24.2 -10.31,-24.2 -11.53,0 -11.53,12.33 -11.53,20.84 0,15.11 1.35,22.96 11.2,22.96 10.18,0 10.64,-12.1 10.64,-19.6 l 0,0 z m 0,20.28 -0.33,0 c -3.15,4.46 -7.07,6.82 -12.44,6.82 -18.26,0 -18.7,-16.23 -18.7,-30.35 0,-24.87 9.18,-28.45 18.25,-28.45 5.94,0 9.86,2.57 12.99,7.85 l 0.23,0 0,-6.73 9.18,0 0,80.86 -9.18,0 0,-30"
           inkscape:connector-curvature="0" />
        <path
           id="path3003"
           style="fill:#231f20;fill-opacity:1;fill-rule:nonzero;stroke:none"
           d="m 2894.23,4190.01 0,36.96 28.23,0 0,8.97 -28.23,0 0,25.99 29.79,0 0,8.94 -40.1,0 0,-80.86 10.31,0 0,0"
           inkscape:connector-curvature="0" />
        <path
           id="path3005"
           style="fill:#231f20;fill-opacity:1;fill-rule:nonzero;stroke:none"
           d="m 2952.22,4196.39 c -9.52,0 -11.88,6.61 -11.88,24.99 0,15.46 4.81,18.81 11.88,18.81 7.05,0 11.87,-3.35 11.87,-18.81 0,-18.38 -2.35,-24.99 -11.87,-24.99 l 0,0 z m 0,-7.5 c 11.98,0 21.49,3.58 21.49,28.56 0,16.58 -1.89,30.24 -21.49,30.24 -19.6,0 -21.51,-13.66 -21.51,-30.24 0,-24.98 9.52,-28.56 21.51,-28.56 l 0,0"
           inkscape:connector-curvature="0" />
        <path
           id="path3007"
           style="fill:#231f20;fill-opacity:1;fill-rule:nonzero;stroke:none"
           d="m 2997.25,4246.57 -9.18,0 0,-56.56 9.18,0 0,33.37 c 0,7.63 2.57,15.36 12.75,15.36 1.68,0 3.26,-0.35 4.94,-0.58 l 0,9.53 c -8.96,0 -13.65,-1 -17.46,-9.63 l -0.23,0 0,8.51"
           inkscape:connector-curvature="0" />
        <path
           id="path3009"
           style="fill:#231f20;fill-opacity:1;fill-rule:nonzero;stroke:none"
           d="m 3060.8,4206.14 c 0,17.24 -28.24,17.02 -28.24,27 0,4.92 3.83,7.6 8.75,7.6 5.82,0 8.96,-3.13 8.85,-9.06 l 10.19,0 c 0.78,11.19 -7.83,16.01 -17.91,16.01 -15.92,0 -19.51,-9.53 -19.51,-15.46 0,-16.91 28.24,-17.13 28.24,-27.21 0,-5.83 -4.26,-8.63 -9.76,-8.63 -9.28,0 -9.4,7.63 -9.4,10.87 l -10.41,0 c -0.35,-12.99 7.29,-18.37 19.49,-18.37 11.2,0 19.71,4.81 19.71,17.25 l 0,0"
           inkscape:connector-curvature="0" />
        <path
           id="path3011"
           style="fill:#231f20;fill-opacity:1;fill-rule:nonzero;stroke:none"
           d="m 3111.5,4228.44 c 0.57,12.65 -6.05,19.25 -17.36,19.25 -19.59,0 -21.5,-13.66 -21.5,-30.24 0,-24.98 9.53,-28.56 21.5,-28.56 6.29,0 18.16,4.03 17.81,19.94 l -9.63,0 c 0.34,-10.2 -6.05,-12.44 -8.18,-12.44 -9.51,0 -11.85,6.61 -11.85,24.99 0,15.46 4.8,18.81 11.85,18.81 3.48,0 8.07,-2.48 7.85,-11.75 l 9.51,0 0,0"
           inkscape:connector-curvature="0" />
        <path
           id="path3013"
           style="fill:#231f20;fill-opacity:1;fill-rule:nonzero;stroke:none"
           d="m 3166.6,4190.01 0,40.1 c 0,12.76 -5.37,17.58 -15,17.58 -7.38,0 -11.64,-1.79 -15.33,-8.4 l -0.45,0 0,31.58 -9.18,0 0,-80.86 9.18,0 0,33.27 c 0,9.51 2.34,16.91 11.52,16.91 7.86,0 10.08,-4.94 10.08,-11.88 l 0,-38.3 9.18,0 0,0"
           inkscape:connector-curvature="0" />
        <path
           id="path3015"
           style="fill:#231f20;fill-opacity:1;fill-rule:nonzero;stroke:none"
           d="m 3212.99,4209.04 c 0,-9.4 -6.15,-13.09 -11.1,-13.09 -6.5,0 -9.62,4.59 -9.62,11.41 l 0,39.21 -9.18,0 0,-43.12 c 0,-9.63 5.37,-14.56 15.23,-14.56 5.94,0 11.31,2.8 14.34,7.95 l 0.33,0 0,-6.83 9.74,0 c -0.35,3.93 -0.56,7.84 -0.56,11.76 l 0,44.8 -9.18,0 0,-37.53"
           inkscape:connector-curvature="0" />
        <path
           id="path3017"
           style="fill:#231f20;fill-opacity:1;fill-rule:nonzero;stroke:none"
           d="m 3278.61,4190.01 0,39.2 c 0,11.2 -3.02,18.48 -15.11,18.48 -7.27,0 -11.53,-2.01 -15.12,-8.4 l -0.45,0 0,7.28 -9.73,0 c 0.32,-3.93 0.55,-7.83 0.55,-11.77 l 0,-44.79 9.18,0 0,33.5 c 0,7.72 1.46,16.68 11.54,16.68 7.83,0 9.96,-4.94 9.96,-10.98 l 0,-39.2 9.18,0 0,0"
           inkscape:connector-curvature="0" />
        <path
           id="path3019"
           style="fill:#231f20;fill-opacity:1;fill-rule:nonzero;stroke:none"
           d="m 3323.98,4218.57 c 0,-7.85 0.34,-20.94 -10.74,-20.94 -6.83,0 -10.99,4.25 -10.99,22.39 0,7.51 0.35,20.05 10.76,20.05 11.52,0 10.97,-13.1 10.97,-21.5 l 0,0 z m -0.21,21.06 -0.23,0 c -2.58,5.48 -7.27,8.06 -13.21,8.06 -4.59,0 -17.69,-1.67 -17.69,-27.67 0,-16.8 3,-30.01 18.36,-30.01 4.92,0 10.07,2.58 12.42,7.05 l 0.35,0 0,-11.76 c 0,-5.82 -3.48,-9.74 -9.86,-9.74 -5.04,0 -8.52,2.91 -8.62,8.18 l -10.31,0 c -0.78,-10.42 7.73,-15.11 17.13,-15.11 12.42,0 20.84,3.01 20.84,15.67 l 0,62.27 -9.18,0 0,-6.94"
           inkscape:connector-curvature="0" />
        <path
           id="path3021"
           style="fill:#231f20;fill-opacity:1;fill-rule:nonzero;stroke:none"
           d="m 2691.4,4366.57 0,-6.94 8.73,0 0,-49.62 9.19,0 0,49.62 11.42,0 0,6.94 -11.42,0 0,9.63 c 0,4.59 1.67,8.74 11.42,8.08 l 0,6.59 c -1.35,0.24 -2.47,0.34 -4.38,0.34 -8.17,0 -16.23,-2.23 -16.23,-13.67 l 0,-10.97 -8.73,0 0,0"
           inkscape:connector-curvature="0" />
        <path
           id="path3023"
           style="fill:#231f20;fill-opacity:1;fill-rule:nonzero;stroke:none"
           d="m 2744.9,4387.73 -10.52,0 0,-11.64 10.52,0 0,11.64 z m 19.72,0 -10.54,0 0,-11.64 10.54,0 0,11.64 z m -4.82,-58.69 c 0,-9.4 -6.16,-13.09 -11.09,-13.09 -6.49,0 -9.63,4.6 -9.63,11.41 l 0,39.21 -9.19,0 0,-43.12 c 0,-9.63 5.38,-14.56 15.24,-14.56 5.93,0 11.31,2.8 14.33,7.95 l 0.34,0 0,-6.83 9.74,0 c -0.33,3.93 -0.55,7.84 -0.55,11.76 l 0,44.8 -9.19,0 0,-37.53"
           inkscape:connector-curvature="0" />
        <path
           id="path3025"
           style="fill:#231f20;fill-opacity:1;fill-rule:nonzero;stroke:none"
           d="m 2795.08,4366.57 -9.18,0 0,-56.56 9.18,0 0,33.37 c 0,7.63 2.58,15.36 12.78,15.36 1.68,0 3.23,-0.35 4.92,-0.58 l 0,9.53 c -8.97,0 -13.67,-1 -17.48,-9.63 l -0.22,0 0,8.51"
           inkscape:connector-curvature="0" />
        <path
           id="path3027"
           style="fill:#231f20;fill-opacity:1;fill-rule:nonzero;stroke:none"
           d="m 2851.01,4347.86 10.98,0 c 10.53,0 18.46,-2.22 18.46,-15.11 0,-5.93 -3.9,-13.79 -14.88,-13.79 l -14.56,0 0,28.9 z m 0,34.07 14.56,0 c 8.63,0 12.43,-5.5 12.43,-12.21 0,-7.86 -3.92,-12.79 -11.98,-12.88 l -15.01,0 0,25.09 z m 15.69,-71.92 c 9.17,0 24.28,2.01 24.28,22.74 0,11.08 -5.03,18.03 -16.56,19.38 l 0,0.55 c 10.42,2.35 13.88,9.08 13.88,19.17 0,1.55 -0.45,6.36 -3.25,10.75 -3.02,4.47 -6.83,8.27 -18.03,8.27 l -26.31,0 0,-80.86 25.99,0 0,0"
           inkscape:connector-curvature="0" />
        <path
           id="path3029"
           style="fill:#231f20;fill-opacity:1;fill-rule:nonzero;stroke:none"
           d="m 2914.91,4366.57 -9.19,0 0,-56.56 9.19,0 0,56.56 z m -9.74,14.45 10.3,0 0,9.85 -10.3,0 0,-9.85"
           inkscape:connector-curvature="0" />
        <path
           id="path3031"
           style="fill:#231f20;fill-opacity:1;fill-rule:nonzero;stroke:none"
           d="m 2940.88,4390.87 -9.18,0 0,-80.86 9.18,0 0,80.86"
           inkscape:connector-curvature="0" />
        <path
           id="path3033"
           style="fill:#231f20;fill-opacity:1;fill-rule:nonzero;stroke:none"
           d="m 2986.68,4340.59 c 0,-11.42 0,-24.2 -10.31,-24.2 -11.54,0 -11.54,12.33 -11.54,20.84 0,15.11 1.35,22.96 11.21,22.96 10.19,0 10.64,-12.1 10.64,-19.6 l 0,0 z m 0,20.28 -0.35,0 c -3.13,4.46 -7.04,6.82 -12.42,6.82 -18.26,0 -18.71,-16.23 -18.71,-30.35 0,-24.87 9.19,-28.45 18.26,-28.45 5.94,0 9.85,2.57 13,7.85 l 0.22,0 0,-6.73 9.18,0 0,80.86 -9.18,0 0,-30"
           inkscape:connector-curvature="0" />
        <path
           id="path3035"
           style="fill:#231f20;fill-opacity:1;fill-rule:nonzero;stroke:none"
           d="m 3043.03,4329.04 c 0,-9.4 -6.17,-13.09 -11.1,-13.09 -6.5,0 -9.63,4.6 -9.63,11.41 l 0,39.21 -9.19,0 0,-43.12 c 0,-9.63 5.37,-14.56 15.23,-14.56 5.94,0 11.33,2.8 14.34,7.95 l 0.35,0 0,-6.83 9.72,0 c -0.33,3.93 -0.56,7.84 -0.56,11.76 l 0,44.8 -9.16,0 0,-37.53"
           inkscape:connector-curvature="0" />
        <path
           id="path3037"
           style="fill:#231f20;fill-opacity:1;fill-rule:nonzero;stroke:none"
           d="m 3108.65,4310.01 0,39.2 c 0,11.2 -3.02,18.48 -15.11,18.48 -7.29,0 -11.55,-2.01 -15.12,-8.4 l -0.47,0 0,7.28 -9.73,0 c 0.33,-3.93 0.57,-7.83 0.57,-11.77 l 0,-44.79 9.16,0 0,33.5 c 0,7.72 1.46,16.68 11.54,16.68 7.85,0 9.98,-4.94 9.98,-10.98 l 0,-39.2 9.18,0 0,0"
           inkscape:connector-curvature="0" />
        <path
           id="path3039"
           style="fill:#231f20;fill-opacity:1;fill-rule:nonzero;stroke:none"
           d="m 3154.02,4338.57 c 0,-7.85 0.34,-20.94 -10.76,-20.94 -6.83,0 -10.97,4.25 -10.97,22.39 0,7.51 0.33,20.05 10.76,20.05 11.52,0 10.97,-13.1 10.97,-21.5 l 0,0 z m -0.23,21.06 -0.22,0 c -2.57,5.48 -7.28,8.06 -13.22,8.06 -4.59,0 -17.69,-1.67 -17.69,-27.67 0,-16.8 3.02,-30.01 18.36,-30.01 4.92,0 10.07,2.58 12.44,7.05 l 0.33,0 0,-11.75 c 0,-5.83 -3.48,-9.75 -9.84,-9.75 -5.06,0 -8.54,2.92 -8.64,8.18 l -10.31,0 c -0.78,-10.41 7.73,-15.11 17.15,-15.11 12.42,0 20.82,3.01 20.82,15.67 l 0,62.27 -9.18,0 0,-6.94"
           inkscape:connector-curvature="0" />
        <path
           id="path3041"
           style="fill:#231f20;fill-opacity:1;fill-rule:nonzero;stroke:none"
           d="m 2706.08,4467.86 10.98,0 c 10.53,0 18.48,-2.22 18.48,-15.11 0,-5.93 -3.92,-13.79 -14.89,-13.79 l -14.57,0 0,28.9 z m 0,34.07 14.57,0 c 8.61,0 12.43,-5.5 12.43,-12.21 0,-7.86 -3.93,-12.79 -12,-12.88 l -15,0 0,25.09 z m 15.67,-71.92 c 9.2,0 24.31,2.01 24.31,22.74 0,11.08 -5.03,18.03 -16.57,19.38 l 0,0.55 c 10.42,2.35 13.89,9.08 13.89,19.17 0,1.55 -0.45,6.36 -3.25,10.75 -3.02,4.47 -6.83,8.27 -18.02,8.27 l -26.33,0 0,-80.86 25.97,0 0,0"
           inkscape:connector-curvature="0" />
        <path
           id="path3043"
           style="fill:#231f20;fill-opacity:1;fill-rule:nonzero;stroke:none"
           d="m 2789.37,4449.04 c 0,-9.4 -6.17,-13.09 -11.1,-13.09 -6.49,0 -9.63,4.6 -9.63,11.41 l 0,39.21 -9.18,0 0,-43.12 c 0,-9.63 5.38,-14.56 15.23,-14.56 5.93,0 11.31,2.8 14.33,7.95 l 0.35,0 0,-6.83 9.73,0 c -0.33,3.93 -0.55,7.84 -0.55,11.76 l 0,44.8 -9.18,0 0,-37.53"
           inkscape:connector-curvature="0" />
        <path
           id="path3045"
           style="fill:#231f20;fill-opacity:1;fill-rule:nonzero;stroke:none"
           d="m 2855,4430.01 0,39.2 c 0,11.2 -3.03,18.48 -15.12,18.48 -7.28,0 -11.54,-2.01 -15.12,-8.4 l -0.45,0 0,7.28 -9.74,0 c 0.34,-3.93 0.56,-7.83 0.56,-11.77 l 0,-44.79 9.18,0 0,33.5 c 0,7.72 1.45,16.68 11.54,16.68 7.84,0 9.97,-4.94 9.97,-10.98 l 0,-39.2 9.18,0 0,0"
           inkscape:connector-curvature="0" />
        <path
           id="path3047"
           style="fill:#231f20;fill-opacity:1;fill-rule:nonzero;stroke:none"
           d="m 2900.13,4460.59 c 0,-11.42 0,-24.2 -10.3,-24.2 -11.53,0 -11.53,12.33 -11.53,20.84 0,15.11 1.34,22.96 11.2,22.96 10.18,0 10.63,-12.1 10.63,-19.6 l 0,0 z m 0,20.28 -0.33,0 c -3.12,4.46 -7.05,6.82 -12.42,6.82 -18.27,0 -18.72,-16.23 -18.72,-30.35 0,-24.87 9.19,-28.45 18.27,-28.45 5.93,0 9.85,2.57 12.98,7.85 l 0.22,0 0,-6.73 9.19,0 0,80.86 -9.19,0 0,-30"
           inkscape:connector-curvature="0" />
        <path
           id="path3049"
           style="fill:#231f20;fill-opacity:1;fill-rule:nonzero;stroke:none"
           d="m 2933.07,4462.27 c 0.11,15.67 4.93,18.47 10.75,18.47 6.71,0 11.32,-2 11.32,-18.47 l -22.07,0 0,0 z m 31.81,-6.95 0,4.82 c 0,18.7 -4.04,27.55 -20.16,27.55 -19.6,0 -21.51,-13.66 -21.51,-30.24 0,-24.98 9.52,-28.56 21.51,-28.56 11.87,0 19.6,5.71 19.71,18.25 l -10.08,0 c -0.33,-5.69 -3.59,-10.75 -9.85,-10.75 -7.18,0 -11.43,3.14 -11.43,18.93 l 31.81,0 0,0"
           inkscape:connector-curvature="0" />
        <path
           id="path3051"
           style="fill:#231f20;fill-opacity:1;fill-rule:nonzero;stroke:none"
           d="m 3015.51,4446.14 c 0,17.24 -28.22,17.02 -28.22,27 0,4.92 3.8,7.6 8.73,7.6 5.82,0 8.96,-3.13 8.84,-9.06 l 10.2,0 c 0.78,11.19 -7.85,16.01 -17.93,16.01 -15.9,0 -19.49,-9.53 -19.49,-15.46 0,-16.91 28.24,-17.13 28.24,-27.21 0,-5.83 -4.26,-8.63 -9.75,-8.63 -9.29,0 -9.41,7.63 -9.41,10.87 l -10.42,0 c -0.33,-12.99 7.27,-18.37 19.5,-18.37 11.19,0 19.71,4.82 19.71,17.25 l 0,0"
           inkscape:connector-curvature="0" />
        <path
           id="path3053"
           style="fill:#231f20;fill-opacity:1;fill-rule:nonzero;stroke:none"
           d="m 3066.78,4430.01 0,38.08 c 0,2.12 0.43,7.73 3.14,9.97 2.44,2.01 3.46,2.13 6.94,2.13 7.4,0 8.96,-5.27 8.96,-10.98 l 0,-39.2 9.18,0 0,43.01 c 0,13.33 -9.53,14.67 -15.45,14.67 -5.16,0 -10.31,-1.23 -13.44,-7.28 -2.15,5.15 -8.08,7.28 -13.22,7.28 -6.6,0 -11.43,-2.13 -14.1,-8.18 l -0.24,0 0,7.06 -9.74,0 c 0.33,-3.93 0.57,-7.83 0.57,-11.77 l 0,-44.79 9.17,0 0,38.08 c 0,2.12 0.45,5.5 2.13,8.3 1.35,2.13 5.16,3.8 7.95,3.8 7.41,0 8.95,-5.27 8.95,-10.98 l 0,-39.2 9.2,0 0,0"
           inkscape:connector-curvature="0" />
        <path
           id="path3055"
           style="fill:#231f20;fill-opacity:1;fill-rule:nonzero;stroke:none"
           d="m 3120.41,4486.57 -9.18,0 0,-56.56 9.18,0 0,56.56 z m -9.75,14.45 10.32,0 0,9.85 -10.32,0 0,-9.85"
           inkscape:connector-curvature="0" />
        <path
           id="path3057"
           style="fill:#231f20;fill-opacity:1;fill-rule:nonzero;stroke:none"
           d="m 3176.95,4430.01 0,39.2 c 0,11.2 -3,18.48 -15.11,18.48 -7.29,0 -11.53,-2.01 -15.12,-8.4 l -0.45,0 0,7.28 -9.75,0 c 0.34,-3.93 0.55,-7.83 0.55,-11.77 l 0,-44.79 9.2,0 0,33.5 c 0,7.72 1.46,16.68 11.54,16.68 7.83,0 9.96,-4.94 9.96,-10.98 l 0,-39.2 9.18,0 0,0"
           inkscape:connector-curvature="0" />
        <path
           id="path3059"
           style="fill:#231f20;fill-opacity:1;fill-rule:nonzero;stroke:none"
           d="m 3202.38,4486.57 -9.18,0 0,-56.56 9.18,0 0,56.56 z m -9.74,14.45 10.29,0 0,9.85 -10.29,0 0,-9.85"
           inkscape:connector-curvature="0" />
        <path
           id="path3061"
           style="fill:#231f20;fill-opacity:1;fill-rule:nonzero;stroke:none"
           d="m 3254.57,4446.14 c 0,17.24 -28.24,17.02 -28.24,27 0,4.92 3.81,7.6 8.73,7.6 5.84,0 8.98,-3.13 8.85,-9.06 l 10.21,0 c 0.78,11.19 -7.85,16.01 -17.93,16.01 -15.9,0 -19.49,-9.53 -19.49,-15.46 0,-16.91 28.24,-17.13 28.24,-27.21 0,-5.83 -4.28,-8.63 -9.74,-8.63 -9.32,0 -9.42,7.63 -9.42,10.87 l -10.43,0 c -0.31,-12.99 7.29,-18.37 19.51,-18.37 11.18,0 19.71,4.82 19.71,17.25 l 0,0"
           inkscape:connector-curvature="0" />
        <path
           id="path3063"
           style="fill:#231f20;fill-opacity:1;fill-rule:nonzero;stroke:none"
           d="m 3260.7,4486.57 0,-6.94 9.28,0 0,-40.22 c 0,-6.49 3.93,-10.07 12.66,-10.07 3.02,0 6.05,0.67 9.08,0.91 l 0,7.04 c -2.01,-0.23 -3.48,-0.45 -4.14,-0.45 -8.4,0 -8.4,4.61 -8.4,8.18 l 0,34.61 12.3,0 0,6.94 -12.3,0 0,15 -9.2,-4.13 0,-10.87 -9.28,0 0,0"
           inkscape:connector-curvature="0" />
        <path
           id="path3065"
           style="fill:#231f20;fill-opacity:1;fill-rule:nonzero;stroke:none"
           d="m 3309.04,4462.27 c 0.12,15.67 4.92,18.47 10.76,18.47 6.72,0 11.31,-2 11.31,-18.47 l -22.07,0 0,0 z m 31.82,-6.95 0,4.82 c 0,18.7 -4.02,27.55 -20.16,27.55 -19.61,0 -21.5,-13.66 -21.5,-30.24 0,-24.98 9.51,-28.56 21.5,-28.56 11.86,0 19.59,5.71 19.71,18.25 l -10.08,0 c -0.35,-5.69 -3.57,-10.75 -9.84,-10.75 -7.19,0 -11.45,3.14 -11.45,18.93 l 31.82,0 0,0"
           inkscape:connector-curvature="0" />
        <path
           id="path3067"
           style="fill:#231f20;fill-opacity:1;fill-rule:nonzero;stroke:none"
           d="m 3363.59,4486.57 -9.18,0 0,-56.56 9.18,0 0,33.37 c 0,7.63 2.58,15.36 12.78,15.36 1.68,0 3.24,-0.35 4.92,-0.58 l 0,9.53 c -8.97,0 -13.65,-1 -17.46,-9.63 l -0.24,0 0,8.51"
           inkscape:connector-curvature="0" />
        <path
           id="path3069"
           style="fill:#231f20;fill-opacity:1;fill-rule:nonzero;stroke:none"
           d="m 3400.27,4486.57 -9.2,0 0,-56.56 9.2,0 0,56.56 z m -9.74,14.45 10.31,0 0,9.85 -10.31,0 0,-9.85"
           inkscape:connector-curvature="0" />
        <path
           id="path3071"
           style="fill:#231f20;fill-opacity:1;fill-rule:nonzero;stroke:none"
           d="m 3446.39,4449.04 c 0,-9.4 -6.14,-13.09 -11.08,-13.09 -6.5,0 -9.63,4.6 -9.63,11.41 l 0,39.21 -9.18,0 0,-43.12 c 0,-9.63 5.38,-14.56 15.24,-14.56 5.94,0 11.31,2.8 14.33,7.95 l 0.32,0 0,-6.83 9.76,0 c -0.35,3.93 -0.56,7.84 -0.56,11.76 l 0,44.8 -9.2,0 0,-37.53"
           inkscape:connector-curvature="0" />
        <path
           id="path3073"
           style="fill:#231f20;fill-opacity:1;fill-rule:nonzero;stroke:none"
           d="m 3509.45,4430.01 0,38.08 c 0,2.12 0.45,7.73 3.15,9.97 2.46,2.01 3.45,2.13 6.93,2.13 7.4,0 8.97,-5.27 8.97,-10.98 l 0,-39.2 9.2,0 0,43.01 c 0,13.33 -9.54,14.67 -15.47,14.67 -5.16,0 -10.3,-1.23 -13.44,-7.28 -2.13,5.15 -8.07,7.28 -13.22,7.28 -6.61,0 -11.43,-2.13 -14.11,-8.18 l -0.23,0 0,7.06 -9.75,0 c 0.36,-3.93 0.57,-7.83 0.57,-11.77 l 0,-44.79 9.18,0 0,38.08 c 0,2.12 0.45,5.5 2.13,8.3 1.35,2.13 5.16,3.8 7.97,3.8 7.36,0 8.94,-5.27 8.94,-10.98 l 0,-39.2 9.18,0 0,0"
           inkscape:connector-curvature="0" />
        <path
           id="path3075"
           style="fill:#f2cf04;fill-opacity:1;fill-rule:nonzero;stroke:none"
           d="m 2589.48,4110 35.43,0 0,-200.01 -35.43,0 0,200.01"
           inkscape:connector-curvature="0" />
        <path
           id="path3077"
           style="fill:#ed1c24;fill-opacity:1;fill-rule:nonzero;stroke:none"
           d="m 2589.48,4310.7 35.43,0 0,-200.7 -35.43,0 0,200.7"
           inkscape:connector-curvature="0" />
        <path
           id="path3079"
           style="fill:#231f20;fill-opacity:1;fill-rule:nonzero;stroke:none"
           d="m 2589.48,4510 35.43,0 0,-199.99 -35.43,0 0,199.99"
           inkscape:connector-curvature="0" />
        <path
           id="path3081"
           style="fill:#231f20;fill-opacity:1;fill-rule:nonzero;stroke:none"
           d="m 2387.16,4309.97 0,0 z m 0.01,-0.09 0,0 z m -0.02,-0.02 0,0 z m 0,0.15 0,0 z m 91.81,166.17 c 0,11.4 -8.28,20.41 -11.2,22.96 l -2.1,-0.48 c 3.1,-3.78 8.57,-10.12 8.57,-18.52 0,-16.53 -17.47,-30.89 -37.4,-31.16 0.15,-1.69 0.14,-3.2 0.14,-4.48 0,-2.36 -0.15,-4.68 -0.43,-6.92 22.62,0.41 42.42,18.8 42.42,38.6 l 0,0 z m -31.19,-136.82 c -9.66,0 -11.75,1.01 -14.29,1.01 -1.64,0 -3.19,-0.16 -3.19,-2.47 0,-1.61 1.8,-3.95 3.44,-5.19 2.27,2.26 5.39,2.75 10.42,2.75 2.35,0 5.56,-0.46 6.98,-0.65 -0.2,-1.39 -0.48,-3.19 -0.48,-5.72 0,-1.32 0.05,-2.88 0.05,-4.52 0,-5.69 -0.84,-8.72 -2.82,-11.01 0.42,-0.26 1.57,-0.49 2.25,-0.49 3.7,0 4.64,1.88 4.64,11.48 0,2.9 0.24,5.59 0.24,6.28 5.17,-3.94 10.44,-10.97 10.44,-16.06 1.68,0.87 3.67,3.41 3.67,5.33 0,3.46 -5.8,8.62 -11.94,14.84 0.86,0.2 3.14,0.86 5.01,0.86 4.83,0 8.73,-0.8 11,-3.48 0.9,0.98 1.64,3.92 1.64,5.58 0,2.89 -1.66,2.79 -2.86,2.79 -5.14,0 -11.49,-0.8 -16.03,-1.55 -1.65,2.21 -12.18,16.45 -14.91,24.04 -0.79,0.28 -1.4,0.5 -2.69,0.5 -2.53,0 -3.19,-1.77 -3.84,-4.19 5.8,-7.04 11.38,-14.69 13.27,-20.13 l 0,0 z m -57.64,20.13 c -0.65,2.42 -1.3,4.19 -3.83,4.19 -1.3,0 -1.91,-0.22 -2.68,-0.5 -2.75,-7.59 -13.27,-21.83 -14.93,-24.04 -4.53,0.75 -10.89,1.55 -16.02,1.55 -1.21,0 -2.87,0.1 -2.87,-2.79 0,-1.66 0.74,-4.6 1.65,-5.58 2.26,2.68 6.17,3.48 10.99,3.48 1.88,0 4.15,-0.66 5.01,-0.86 -6.15,-6.22 -11.94,-11.38 -11.94,-14.84 0,-1.92 2,-4.46 3.69,-5.33 0,5.09 5.26,12.12 10.42,16.06 0,-0.69 0.24,-3.38 0.24,-6.28 0,-9.6 0.95,-11.48 4.65,-11.48 0.67,0 1.81,0.23 2.25,0.49 -1.99,2.29 -2.82,5.32 -2.82,11.01 0,1.64 0.06,3.2 0.06,4.52 0,2.53 -0.3,4.33 -0.49,5.72 1.41,0.19 4.63,0.65 6.98,0.65 5.02,0 8.14,-0.49 10.42,-2.75 1.63,1.24 3.44,3.58 3.44,5.19 0,2.31 -1.55,2.47 -3.19,2.47 -2.55,0 -4.64,-1.01 -14.3,-1.01 1.9,5.44 7.47,13.09 13.27,20.13 l 0,0 z m -39.72,120.65 c 0,8.4 5.47,14.74 8.56,18.52 l -2.08,0.48 c -2.94,-2.55 -11.21,-11.56 -11.21,-22.96 0,-19.94 20.08,-38.45 42.91,-38.61 -0.25,2.16 -0.39,4.46 -0.39,6.93 0,1.54 0.07,3.05 0.2,4.46 -20.18,0 -37.99,14.5 -37.99,31.18 l 0,0 z m 61.34,15.36 c 1.04,2.39 2.44,5.23 2.44,8.36 0,8.65 -7.17,12.77 -16.77,12.77 -4.94,0 -7.42,-1.59 -7.42,-3.19 0,-1.6 1.63,-5.12 2.25,-6.21 1.77,0.8 4.98,1.73 6.84,1.73 6.59,0 11.51,-7.39 12.66,-13.46 l 0,0 z m 4.72,11.06 c 5.62,-1.09 9.44,6.08 4.1,7.36 0.74,-2.37 -2.84,-4.04 -2.84,-4.04 0,0 -1.37,3.17 0.4,4.98 -3.27,1.6 -4.09,-0.35 -4.15,-2.36 1.28,-1.72 2.11,-3.72 2.49,-5.94 l 0,0 z m 18.17,-49.13 c 0.9,-0.05 1.75,-0.11 2.65,-0.11 15.8,0 31.47,10.22 31.47,23.32 0,6.98 -3.14,11.86 -7.02,17.27 -2.28,-0.38 -4.35,-0.6 -5.98,-0.6 -7.16,0 -11.04,3.84 -11.33,7.61 0,3.39 2.76,5.96 7.05,5.96 6.64,0 18.75,-6.22 30.96,-6.22 -1.2,-0.91 -3.2,-1.87 -5.6,-2.77 7.15,-6.44 11.93,-15.07 13.76,-24.3 l 18.7,-29.95 c 3.14,-5 9.79,-14.82 19.79,-22.5 -12.09,0 -20.13,-0.28 -30.36,15.91 l -9.58,15.34 c -0.71,-1.99 -1.59,-3.92 -2.61,-5.82 l 19.07,-30.52 c 3.18,-5.05 9.74,-14.8 19.8,-22.51 -12.11,0 -20.12,-0.29 -30.36,15.9 l -16.42,26.28 c -1.22,-1.3 -2.52,-2.58 -3.89,-3.81 l 23.17,-37.07 c 3.19,-5.08 9.73,-14.78 19.8,-22.5 -12.1,0 -20.13,-0.29 -30.37,15.91 l -22.57,36.13 c -1.49,-0.95 -3.01,-1.85 -4.57,-2.72 l 27.54,-44.1 c 3.18,-5.06 9.72,-14.77 19.8,-22.5 -12.09,0 -20.13,-0.28 -30.35,15.91 l -28.38,45.42 c -1.68,-0.66 -3.39,-1.26 -5.12,-1.82 l 32.08,-51.34 c 3.12,-4.96 9.82,-14.83 19.78,-22.48 -12.1,0 -20.13,-0.29 -30.35,15.9 l -34.18,54.71 -1.04,-0.18 c -0.93,-2.96 -1.58,-5.73 -1.58,-8.48 0,-17.19 11.28,-32.36 24.83,-44.08 -0.87,-0.37 -2.39,-0.52 -3.78,-0.52 -2.79,0 -4.59,0.17 -5.87,0.38 3.15,-7.14 9.88,-16.34 13.28,-21.1 4.44,0.79 10.89,1.42 15.11,1.42 4.41,0 4.9,-2.59 4.9,-4.9 0,-4.01 -1.87,-7.22 -4.05,-9.01 -0.81,2.08 -2.46,4.81 -10.63,4.81 l -0.82,-0.03 c 2.4,-2.66 9.86,-8.7 9.86,-13.57 0,-3.21 -3.53,-8.04 -8.2,-8.04 0.29,1.04 0.25,1.99 0.25,2.71 0,3.93 -3.49,8.54 -6.43,11.75 0.07,-0.95 0.04,-0.84 0.04,-1.97 0,-9.3 -0.84,-13.58 -6.76,-13.58 -2.9,0 -4.9,1.59 -5.58,2.06 3.83,3.54 4.04,6.33 4.04,11.54 l -0.04,4.52 c -0.01,1.19 0.01,2.77 0.2,3.92 -2.12,0.29 -2.96,0.28 -4.6,0.28 0,0 -8.41,0.67 -10.42,-3.7 -2.28,2.08 -5.58,5.03 -5.58,8.31 0,2.15 1.01,4.58 5.33,4.58 1.64,0 6.79,-1.02 11.11,-1.02 -1.16,2.58 -6.32,10.12 -10.78,15.61 -0.68,-2.12 -1.74,-4.43 -4.08,-6.3 -0.33,3.53 -2.39,14.64 -7.89,21.13 -0.64,-4.38 -1.51,-8.89 -1.51,-18.39 0,-23.14 5.57,-40.23 17.38,-43.5 -1.53,-2.69 -4.78,-5.09 -8.16,-5.09 -4.32,0 -6.67,4.89 -9.07,9.51 -1.25,-3.41 -4.69,-11.73 -8.17,-11.73 -3.45,0 -6.9,8.32 -8.15,11.73 -2.4,-4.62 -4.76,-9.51 -9.09,-9.51 -3.36,0 -6.61,2.4 -8.14,5.09 11.8,3.27 17.37,20.36 17.37,43.5 0,9.5 -0.86,14.01 -1.51,18.39 -5.49,-6.49 -7.56,-17.6 -7.88,-21.13 -2.35,1.87 -3.41,4.18 -4.09,6.3 -4.45,-5.49 -9.61,-13.03 -10.78,-15.61 4.33,0 9.48,1.02 11.12,1.02 4.32,0 5.34,-2.43 5.34,-4.58 0,-3.28 -3.32,-6.23 -5.59,-8.31 -2.02,4.37 -10.42,3.7 -10.42,3.7 -1.63,0 -2.48,0.01 -4.6,-0.28 0.18,-1.15 0.22,-2.73 0.19,-3.92 l -0.03,-4.52 c 0,-5.21 0.2,-8 4.04,-11.54 -0.68,-0.47 -2.69,-2.06 -5.58,-2.06 -5.92,0 -6.77,4.28 -6.77,13.58 0,1.13 -0.03,1.02 0.05,1.97 -2.95,-3.21 -6.43,-7.82 -6.43,-11.75 0,-0.72 -0.05,-1.67 0.24,-2.71 -4.65,0 -8.19,4.83 -8.19,8.04 0,4.87 7.47,10.91 9.86,13.57 l -0.83,0.03 c -8.16,0 -9.82,-2.73 -10.62,-4.81 -2.19,1.79 -4.06,5 -4.06,9.01 0,2.31 0.5,4.9 4.91,4.9 4.23,0 10.67,-0.63 15.1,-1.42 3.4,4.76 10.13,13.96 13.28,21.1 -1.26,-0.21 -3.07,-0.38 -5.86,-0.38 -1.4,0 -2.92,0.15 -3.77,0.52 13.53,11.72 24.81,26.89 24.81,44.08 0,2.75 -0.64,5.52 -1.58,8.48 l -1.02,0.18 -34.19,-54.71 c -10.23,-16.19 -18.25,-15.9 -30.35,-15.9 9.96,7.65 16.65,17.52 19.78,22.48 l 32.08,51.34 c -1.74,0.56 -3.43,1.16 -5.13,1.82 l -28.37,-45.42 c -10.23,-16.19 -18.27,-15.91 -30.34,-15.91 10.06,7.73 16.6,17.44 19.78,22.5 l 27.56,44.1 c -1.58,0.87 -3.1,1.77 -4.59,2.72 l -22.57,-36.13 c -10.24,-16.2 -18.26,-15.91 -30.36,-15.91 10.07,7.72 16.62,17.42 19.79,22.5 l 23.17,37.07 c -1.37,1.23 -2.66,2.51 -3.88,3.81 l -16.42,-26.28 c -10.24,-16.19 -18.26,-15.9 -30.36,-15.9 10.05,7.71 16.63,17.46 19.8,22.51 l 19.06,30.52 c -1.01,1.9 -1.89,3.83 -2.6,5.82 l -9.59,-15.34 c -10.23,-16.19 -18.26,-15.91 -30.35,-15.91 10.01,7.68 16.64,17.5 19.79,22.5 l 18.7,29.95 c 1.82,9.23 6.6,17.86 13.76,24.3 -2.39,0.9 -4.4,1.86 -5.61,2.77 12.21,0 24.32,6.21 30.96,6.21 4.3,0 7.05,-2.56 7.05,-5.95 -0.27,-3.77 -4.16,-7.61 -11.33,-7.61 -1.62,0 -3.69,0.22 -5.98,0.6 -3.87,-5.41 -7.01,-10.29 -7.01,-17.27 0,-13.1 15.66,-23.32 31.48,-23.32 0.89,0 1.74,0.06 2.64,0.11 3.13,10.61 9.79,17.57 15.12,24.38 -6.39,2.32 -13.5,8.39 -13.5,11.13 0.8,0.47 13.03,-3.38 14.3,-3.72 0.26,-0.07 0.53,-0.09 0.82,0 1.49,0.45 2.73,2.63 2.73,2.85 -1.31,0.22 -8.98,1.21 -14.23,3.12 -3.98,1.45 -6,4.1 -6,5.1 1.28,0.21 6.14,-2.34 13.26,-2.34 2.63,0 3.15,0.11 5.77,0.43 -1.84,4.37 -5.3,8.08 -9.18,8.08 -1.57,0 -4.99,-0.98 -7.85,-2.41 -1.99,3.09 -3.74,7.16 -3.74,9.39 0,2.61 2.6,5.69 9.92,5.69 2.04,0 3.95,-0.17 5.73,-0.5 1.43,-0.27 2.63,-0.59 3.92,-1.1 -0.1,0.18 -0.16,0.57 -0.16,0.93 0,1.01 0.92,2.08 4.36,2.08 6.03,0 12.2,-1.98 19.78,-1.98 1.96,0 3.29,0.07 4.42,0.54 -0.49,-1.5 -2.61,-3.73 -4.57,-5.53 1.21,-1.64 4.34,-5.61 4.34,-12.03 0,-10.3 -6.79,-18.79 -6.79,-29.22 0,-6.19 4.76,-11.64 6.19,-14.89 l 0,0"
           inkscape:connector-curvature="0" />
        <path
           id="path3083"
           style="fill:#231f20;fill-opacity:1;fill-rule:nonzero;stroke:none"
           d="m 2719.89,4747.03 c 0,5.95 -2.45,9.17 -8.96,9.17 -2.03,0 -9.31,-0.35 -9.31,-10.92 l 0,-17.08 c 0,-11.06 3.22,-13.86 9.31,-13.86 4.62,0 7.7,1.26 9.03,2.24 l 0,15.12 -9.31,0 0,5.6 15.75,0 0,-24.57 c -4.13,-2.24 -8.96,-3.78 -15.47,-3.78 -10.71,0 -15.89,5.53 -15.89,19.53 l 0,16.59 c 0,10.08 5.18,16.52 15.89,16.52 10.92,0 16.1,-3.99 15.68,-14.56 l -6.72,0"
           inkscape:connector-curvature="0" />
        <path
           id="path3085"
           style="fill:#231f20;fill-opacity:1;fill-rule:nonzero;stroke:none"
           d="m 2738.44,4710 0,50.54 26.04,0 0,-5.6 -19.6,0 0,-16.24 18.2,0 0,-5.6 -18.2,0 0,-17.5 20.02,0 0,-5.6 -26.46,0"
           inkscape:connector-curvature="0" />
        <path
           id="path3087"
           style="fill:#231f20;fill-opacity:1;fill-rule:nonzero;stroke:none"
           d="m 2772.95,4710 0,50.54 25.06,0 0,-5.6 -18.62,0 0,-16.24 17.64,0 0,-5.6 -17.64,0 0,-23.1 -6.44,0"
           inkscape:connector-curvature="0" />
        <path
           id="path3089"
           style="fill:#231f20;fill-opacity:1;fill-rule:nonzero;stroke:none"
           d="m 2804.31,4728.48 0,16.59 c 0,10.08 5.18,16.52 15.89,16.52 10.71,0 15.89,-6.44 15.89,-16.52 l 0,-16.59 c 0,-14 -5.18,-19.53 -15.89,-19.53 -10.71,0 -15.89,5.53 -15.89,19.53 z m 13.09,38.01 -6.58,0 0,7.28 6.58,0 0,-7.28 z m 12.11,-38.29 0,17.08 c 0,10.57 -7.28,10.92 -9.31,10.92 -2.03,0 -9.31,-0.35 -9.31,-10.92 l 0,-17.08 c 0,-11.06 3.22,-13.86 9.31,-13.86 6.09,0 9.31,2.8 9.31,13.86 z m 0.21,38.29 -6.58,0 0,7.28 6.58,0 0,-7.28"
           inkscape:connector-curvature="0" />
        <path
           id="path3091"
           style="fill:#231f20;fill-opacity:1;fill-rule:nonzero;stroke:none"
           d="m 2853.59,4733.24 0,-23.24 -6.44,0 0,50.54 17.43,0 c 8.96,0 12.11,-6.3 12.11,-12.6 0,-5.95 -3.29,-10.5 -9.24,-11.55 l 0,-0.14 c 5.81,-0.91 7.91,-2.87 8.26,-13.02 0.07,-2.17 0.77,-10.08 1.75,-13.23 l -6.72,0 c -1.82,3.5 -1.4,10.08 -1.96,16.8 -0.49,6.16 -5.46,6.44 -7.63,6.44 l -7.56,0 z m 0,5.6 9.66,0 c 4.62,0 6.86,3.99 6.86,8.4 0,3.64 -1.82,7.7 -6.79,7.7 l -9.73,0 0,-16.1"
           inkscape:connector-curvature="0" />
        <path
           id="path3093"
           style="fill:#231f20;fill-opacity:1;fill-rule:nonzero;stroke:none"
           d="m 2886.35,4760.54 15.54,0 c 6.44,0 11.06,-2.31 13.58,-7.7 2.03,-4.27 2.24,-14.35 2.24,-15.96 0,-10.78 -0.98,-17.01 -3.08,-20.37 -2.73,-4.34 -7.84,-6.51 -16.66,-6.51 l -11.62,0 0,50.54 z m 6.44,-44.94 6.09,0 c 8.96,0 12.25,3.36 12.25,15.12 l 0,10.22 c 0,10.22 -3.15,14 -9.87,14 l -8.47,0 0,-39.34"
           inkscape:connector-curvature="0" />
        <path
           id="path3095"
           style="fill:#231f20;fill-opacity:1;fill-rule:nonzero;stroke:none"
           d="m 2928.98,4710 0,50.54 26.04,0 0,-5.6 -19.61,0 0,-16.24 18.21,0 0,-5.6 -18.21,0 0,-17.5 20.03,0 0,-5.6 -26.46,0"
           inkscape:connector-curvature="0" />
        <path
           id="path3097"
           style="fill:#231f20;fill-opacity:1;fill-rule:nonzero;stroke:none"
           d="m 2970.28,4733.24 0,-23.24 -6.44,0 0,50.54 17.43,0 c 8.96,0 12.11,-6.3 12.11,-12.6 0,-5.95 -3.29,-10.5 -9.24,-11.55 l 0,-0.14 c 5.81,-0.91 7.91,-2.87 8.26,-13.02 0.06,-2.17 0.77,-10.08 1.74,-13.23 l -6.71,0 c -1.82,3.5 -1.41,10.08 -1.96,16.8 -0.49,6.16 -5.47,6.44 -7.63,6.44 l -7.56,0 z m 0,5.6 9.66,0 c 4.61,0 6.86,3.99 6.86,8.4 0,3.64 -1.82,7.7 -6.8,7.7 l -9.72,0 0,-16.1"
           inkscape:connector-curvature="0" />
        <path
           id="path3099"
           style="fill:#231f20;fill-opacity:1;fill-rule:nonzero;stroke:none"
           d="m 3031.25,4760.54 0,-5.6 -13.3,0 0,-44.94 -6.44,0 0,44.94 -13.3,0 0,5.6 33.04,0"
           inkscape:connector-curvature="0" />
        <path
           id="path3101"
           style="fill:#231f20;fill-opacity:1;fill-rule:nonzero;stroke:none"
           d="m 3071.01,4710 -7.71,0 -14.62,50.54 7,0 11.55,-44.45 0.14,0 11.83,44.45 6.58,0 -14.77,-50.54"
           inkscape:connector-curvature="0" />
        <path
           id="path3103"
           style="fill:#231f20;fill-opacity:1;fill-rule:nonzero;stroke:none"
           d="m 3092.15,4728.48 0,16.59 c 0,10.08 5.17,16.52 15.89,16.52 10.71,0 15.89,-6.44 15.89,-16.52 l 0,-16.59 c 0,-14 -5.18,-19.53 -15.89,-19.53 -10.72,0 -15.89,5.53 -15.89,19.53 z m 25.19,-0.28 0,17.08 c 0,10.57 -7.27,10.92 -9.3,10.92 -2.03,0 -9.31,-0.35 -9.31,-10.92 l 0,-17.08 c 0,-11.06 3.22,-13.86 9.31,-13.86 6.09,0 9.3,2.8 9.3,13.86"
           inkscape:connector-curvature="0" />
        <path
           id="path3105"
           style="fill:#231f20;fill-opacity:1;fill-rule:nonzero;stroke:none"
           d="m 3141.21,4710 -6.01,0 0,50.54 10.43,0 12.73,-42.42 0.15,0 12.88,42.42 10.64,0 0,-50.54 -6.44,0 0,44.94 -0.14,0 -14.15,-44.94 -6.09,0 -13.85,44.94 -0.15,0 0,-44.94"
           inkscape:connector-curvature="0" />
      </g>
    </g>
  </g>
</svg>
