<?xml version="1.0" encoding="UTF-8" standalone="no"?>
<!-- Created with Inkscape (http://www.inkscape.org/) -->

<svg
   xmlns:osb="http://www.openswatchbook.org/uri/2009/osb"
   xmlns:dc="http://purl.org/dc/elements/1.1/"
   xmlns:cc="http://creativecommons.org/ns#"
   xmlns:rdf="http://www.w3.org/1999/02/22-rdf-syntax-ns#"
   xmlns:svg="http://www.w3.org/2000/svg"
   xmlns="http://www.w3.org/2000/svg"
   xmlns:sodipodi="http://sodipodi.sourceforge.net/DTD/sodipodi-0.dtd"
   xmlns:inkscape="http://www.inkscape.org/namespaces/inkscape"
   width="153.33362"
   height="79.38475"
   id="svg2"
   version="1.1"
   inkscape:version="0.48.4 r9939"
   sodipodi:docname="JGU-Logo_farbe_rgb_weisseSchrift.svg">
  <defs
     id="defs4">
    <linearGradient
       id="linearGradient3803"
       osb:paint="gradient">
      <stop
         style="stop-color:#64686e;stop-opacity:1;"
         offset="0"
         id="stop3805" />
      <stop
         style="stop-color:#64686e;stop-opacity:0;"
         offset="1"
         id="stop3807" />
    </linearGradient>
    <clipPath
       id="clipPath3001"
       clipPathUnits="userSpaceOnUse">
      <path
         id="path3003"
         d="M 0,1253.68 0,0 l 1842.51,0 0,1253.68 -1842.51,0 z"
         inkscape:connector-curvature="0" />
    </clipPath>
  </defs>
  <sodipodi:namedview
     id="base"
     pagecolor="#ffffff"
     bordercolor="#666666"
     borderopacity="1.0"
     inkscape:pageopacity="0.0"
     inkscape:pageshadow="2"
     inkscape:zoom="9.0065046"
     inkscape:cx="55.404406"
     inkscape:cy="39.692375"
     inkscape:document-units="px"
     inkscape:current-layer="g2995"
     showgrid="false"
     fit-margin-top="0"
     fit-margin-left="0"
     fit-margin-right="0"
     fit-margin-bottom="0"
     inkscape:window-width="1920"
     inkscape:window-height="1178"
     inkscape:window-x="1912"
     inkscape:window-y="-8"
     inkscape:window-maximized="1" />
  <metadata
     id="metadata7">
    <rdf:RDF>
      <cc:Work
         rdf:about="">
        <dc:format>image/svg+xml</dc:format>
        <dc:type
           rdf:resource="http://purl.org/dc/dcmitype/StillImage" />
        <dc:title />
      </cc:Work>
    </rdf:RDF>
  </metadata>
  <g
     inkscape:label="Ebene 1"
     inkscape:groupmode="layer"
     id="layer1"
     transform="translate(-294.76175,-341.24122)">
    <g
       transform="matrix(1.25,0,0,-1.25,263.61913,453.66747)"
       inkscape:label="ink_ext_XXXXXX"
       id="g2993">
      <g
         transform="scale(0.1,0.1)"
         id="g2995">
        <g
           id="g2997">
          <g
             clip-path="url(#clipPath3001)"
             id="g2999">
            <path
               id="path3005"
               style="fill:#ffffff;fill-opacity:1;fill-rule:nonzero;stroke:none"
               d="m 613.398,436.434 c -3.562,1.261 -7.64,1.855 -11.058,1.855 -9.348,0 -16.617,-4.902 -16.617,-14.082 0,-16.102 22.257,-12.91 22.257,-24.492 0,-6.094 -5.937,-8.445 -10.164,-8.445 -3.785,0 -8.238,1.464 -10.753,2.507 l -0.739,-6.894 c 3.406,-1.133 6.969,-2.149 10.602,-2.149 10.387,0 18.914,4.356 18.914,15.43 0,17.07 -22.25,14.766 -22.25,24.707 0,5.402 4.89,6.895 9.051,6.895 3.859,0 5.933,-0.664 9.718,-2.157 l 1.039,6.825 0,0 z m -65.433,-50.813 29.004,0 0,6.535 -21.594,0 0,17.051 19.664,0 0,6.543 -19.664,0 0,15.117 21.594,0 0,6.535 -29.004,0 0,-51.781 z m -55.492,0 7.422,0 0,42.578 0.14,0 23.442,-42.578 9.503,0 0,51.781 -7.421,0 0,-41.691 -0.153,0 -22.843,41.691 -10.09,0 0,-51.781 z m -53.567,0 7.422,0 0,42.578 0.149,0 23.441,-42.578 9.496,0 0,51.781 -7.418,0 0,-41.691 -0.148,0 -22.848,41.691 -10.094,0 0,-51.781 z m -20.176,19.133 -20.625,0 10.309,25.664 10.316,-25.664 0,0 z m -36.058,-19.133 7.789,0 5.269,13.07 25.379,0 5.262,-13.07 8.086,0 -21.891,51.781 -7.781,0 -22.113,-51.781 0,0 z m -43.027,0 7.421,0 0,23.586 24.774,0 0,-23.586 7.422,0 0,51.781 -7.422,0 0,-21.652 -24.774,0 0,21.652 -7.421,0 0,-51.781 z m -60.016,25.891 c 0,-15.742 9.125,-26.778 24.926,-26.778 15.8,0 24.925,11.036 24.925,26.778 0,15.351 -9.199,26.777 -24.925,26.777 -15.731,0 -24.926,-11.426 -24.926,-26.777 l 0,0 z m 7.859,0 c 0,10.527 5.641,20.332 17.067,20.254 11.425,0.078 17.062,-9.727 17.062,-20.254 0,-10.305 -5.125,-20.242 -17.062,-20.242 -11.942,0 -17.067,9.937 -17.067,20.242 l 0,0 z m -38.347,-25.891 c 1.55,-0.594 3.632,-0.887 6,-0.887 11.207,0 14.547,6.973 14.547,14.25 l 0,38.418 -7.422,0 0,-36.066 c 0,-6.289 -1.778,-10.066 -8.457,-10.066 -1.411,0 -3.043,0.136 -4.668,0.73 l 0,-6.379"
               inkscape:connector-curvature="0" />
            <path
               id="path3007"
               style="fill:#ffffff;fill-opacity:1;fill-rule:nonzero;stroke:none"
               d="m 1439.97,302.527 35.84,0 0,6.536 -27.24,0 26.79,38.582 0,6.687 -34.51,0 0,-6.531 25.96,0 -26.84,-38.582 0,-6.692 z m -48.67,0 7.43,0 0,42.598 0.13,0 23.45,-42.598 9.5,0 0,51.805 -7.42,0 0,-41.707 -0.16,0 -22.84,41.707 -10.09,0 0,-51.805 z m -22.78,0 7.41,0 0,51.805 -7.41,0 0,-51.805 z m -20.6,19.141 -20.63,0 10.31,25.684 10.32,-25.684 0,0 z m -36.07,-19.141 7.79,0 5.26,13.067 25.37,0 5.28,-13.067 8.09,0 -21.91,51.805 -7.76,0 -22.12,-51.805 0,0 z m -61.29,0 7.42,0 0,44.825 0.16,0 17.13,-44.825 7.28,0 17.13,44.825 0.14,0 0,-44.825 7.43,0 0,51.805 -12.24,0 -15.95,-43.035 -16.25,43.035 -12.25,0 0,-51.805"
               inkscape:connector-curvature="0" />
            <path
               id="path3009"
               style="fill:#ffffff;fill-opacity:1;fill-rule:nonzero;stroke:none"
               d="m 1180.24,265.867 12.68,0 0,77.363 27.52,0 0,11.165 -67.72,0 0,-11.165 27.52,0 0,-77.363 z m -40.82,32.735 -35.26,0 17.62,43.867 17.64,-43.867 0,0 z m -61.64,-32.735 13.32,0 9,22.324 43.37,0 9.01,-22.324 13.82,0 -37.41,88.528 -13.32,0 -37.79,-88.528 0,0 z m 48.69,95.891 11.92,0 0,12.664 -11.92,0 0,-12.664 z m -20.79,0 11.92,0 0,12.664 -11.92,0 0,-12.664 z m -54.54,-95.891 12.69,0 0,77.363 27.52,0 0,11.165 -67.71,0 0,-11.165 27.5,0 0,-77.363 z m -51.613,0 12.683,0 0,88.528 -12.683,0 0,-88.528 z m -23.964,86.875 c -6.086,2.149 -13.059,3.156 -18.907,3.156 -15.968,0 -28.39,-8.351 -28.39,-24.093 0,-27.5 38.039,-22.063 38.039,-41.848 0,-10.379 -10.149,-14.461 -17.364,-14.461 -6.476,0 -14.082,2.539 -18.39,4.328 l -1.278,-11.808 c 5.84,-1.895 11.915,-3.684 18.153,-3.684 17.754,0 32.324,7.512 32.324,26.398 0,29.161 -38.035,25.235 -38.035,42.227 0,9.258 8.367,11.809 15.469,11.809 6.582,0 10.136,-1.164 16.621,-3.684 l 1.758,11.66 0,0 z m -111.34,-9.512 12.172,0 c 11.668,0 17.753,-5.078 17.753,-13.066 0,-8.496 -7.101,-13.809 -19.148,-13.809 l -10.777,0 0,26.875 z m -12.68,-77.363 12.68,0 0,39.317 7.609,0 c 6.719,0 10.91,0 14.84,-8.614 l 13.566,-30.703 14.465,0 -16.742,35.254 c -2.801,5.469 -4.691,7.363 -8.629,8.867 l 0,0.274 c 10.273,1.758 18.266,9.375 18.266,20.156 0,21.191 -16.871,23.977 -34.371,23.977 l -21.684,0 0,-88.528 z m -72.922,0 49.586,0 0,11.172 -36.898,0 0,29.16 33.597,0 0,11.164 -33.597,0 0,25.867 36.898,0 0,11.165 -49.586,0 0,-88.528 z m -11.414,88.528 -13.316,0 -28.024,-77.356 -0.254,0 -27.269,77.356 -14.199,0 33.355,-88.528 15.852,0 33.855,88.528 0,0 z m -106.519,-88.528 12.675,0 0,88.528 -12.675,0 0,-88.528 z m -94.227,0 12.684,0 0,72.805 0.253,0 40.075,-72.805 16.23,0 0,88.528 -12.68,0 0,-71.282 -0.253,0 -39.063,71.282 -17.246,0 0,-88.528 z m -23.832,88.528 -12.688,0 0,-50.227 c 0,-16.992 -5.332,-28.672 -21.683,-28.672 -16.36,0 -21.692,11.68 -21.692,28.672 l 0,50.227 -12.675,0 0,-51.887 c 0,-24.824 12.554,-38.176 34.367,-38.176 21.808,0 34.371,13.352 34.371,38.176 l 0,51.887"
               inkscape:connector-curvature="0" />
            <path
               id="path3011"
               style="fill:#ffffff;fill-opacity:1;fill-rule:nonzero;stroke:none"
               d="m 1371.26,471.563 c -7.37,2.539 -13.05,4.429 -25.99,4.429 -27.01,0 -46.8,-18.125 -46.8,-45.398 0,-28.145 18.63,-46.153 46.67,-46.153 13.82,0 22.18,2.286 27,3.946 l 0,46.015 -31.32,0 0,-10.39 18.66,0 0,-26.895 c -3.19,-0.625 -5.46,-1.504 -14.21,-1.504 -18.39,0 -33.35,13.809 -33.35,34.602 0,19.781 13.55,34.629 33.97,34.629 11.42,0 18.14,-2.031 24.35,-6.098 l 1.02,12.817 0,0 z m -132.53,-8.235 12.19,0 c 11.65,0 17.76,-5.078 17.76,-13.074 0,-8.488 -7.12,-13.82 -19.16,-13.82 l -10.79,0 0,26.894 z m -12.67,-77.383 12.67,0 0,39.336 7.62,0 c 6.71,0 10.9,0 14.84,-8.633 l 13.56,-30.703 14.44,0 -16.71,35.274 c -2.8,5.449 -4.71,7.344 -8.63,8.879 l 0,0.254 c 10.28,1.765 18.25,9.375 18.25,20.156 0,21.18 -16.84,23.965 -34.37,23.965 l -21.67,0 0,-88.528 z m -71.64,0 49.56,0 0,11.172 -36.89,0 0,29.16 33.59,0 0,11.164 -33.59,0 0,25.887 36.89,0 0,11.145 -49.56,0 0,-88.528 z m -69.38,78.133 13.31,0 c 7.37,0 16.37,-2.652 16.37,-13.18 0,-13.07 -10.41,-14.21 -22.7,-14.21 l -6.98,0 0,27.39 z m 0,-37.801 8.24,0 c 10.9,0 22.95,-1.894 22.95,-15.578 0,-11.929 -10.27,-14.344 -21.67,-14.344 l -9.52,0 0,29.922 z m -12.68,-40.332 23.58,0 c 18.03,0 33.73,4.59 33.73,23.614 0,12.421 -8.49,20.285 -20.52,21.289 l 0,0.254 c 11.15,2.793 18.25,8.878 18.25,21.062 0,16.352 -12.68,22.309 -31.07,22.309 l -23.97,0 0,-88.528 z m -98.528,0 12.676,0 0,72.801 0.254,0 40.058,-72.801 16.24,0 0,88.528 -12.67,0 0,-71.282 -0.26,0 -39.06,71.282 -17.238,0 0,-88.528 z m -73.562,0 49.578,0 0,11.172 -36.899,0 0,29.16 33.61,0 0,11.164 -33.61,0 0,25.887 36.899,0 0,11.145 -49.578,0 0,-88.528 z m -50.977,0 12.68,0 0,77.383 27.519,0 0,11.145 -67.722,0 0,-11.145 27.523,0 0,-77.383 z m -36.523,88.528 -12.676,0 0,-50.207 c 0,-16.993 -5.332,-28.653 -21.692,-28.653 -16.351,0 -21.683,11.66 -21.683,28.653 l 0,50.207 -12.68,0 0,-51.848 c 0,-24.863 12.555,-38.184 34.363,-38.184 21.813,0 34.368,13.321 34.368,38.184 l 0,51.848 z m -92.196,-2.91 c -7.351,2.539 -13.054,4.429 -25.996,4.429 -27.012,0 -46.797,-18.125 -46.797,-45.398 0,-28.145 18.645,-46.153 46.676,-46.153 13.82,0 22.184,2.286 27.012,3.946 l 0,46.015 -31.328,0 0,-10.39 18.644,0 0,-26.895 c -3.172,-0.625 -5.457,-1.504 -14.207,-1.504 -18.39,0 -33.348,13.809 -33.348,34.602 0,19.781 13.571,34.629 33.985,34.629 11.41,0 18.137,-2.031 24.348,-6.098 l 1.011,12.817 0,0"
               inkscape:connector-curvature="0" />
            <path
               id="path3013"
               style="fill:none;fill-opacity:1;fill-rule:nonzero;stroke:none"
               d="m 779.496,899.41 0,-354.336 354.344,0 0,354.336 -354.344,0 0,0"
               inkscape:connector-curvature="0" />
            <path
               id="path3015"
               style="fill:#ffffff;fill-opacity:1;fill-rule:nonzero;stroke:none"
               d="m 957.055,704.438 c 0,6.792 1.699,7.578 7.961,7.578 l 1.57,0 c 0.664,0 0.918,1.566 0.918,2.875 0,0.648 0.129,1.695 -0.781,1.695 l -37.754,0 c -1.172,0 -1.317,-1.309 -1.317,-3.004 0,-1.309 0.274,-2.086 0.918,-2.086 l 9.668,0 c 5.489,0 8.895,-1.961 8.895,-8.488 l 0,-9.02 c 0,-7.972 -7.977,-14.758 -23.399,-14.758 -20.371,0 -37.484,20.118 -37.484,42.969 0,31.36 24.16,42.723 39.57,42.723 17.243,0 25.219,-9.93 26.91,-19.856 0.145,-0.523 0.79,-0.523 1.571,-0.523 0.664,0 2.754,0.398 2.754,1.172 0,5.754 -0.664,16.07 -0.918,17.109 -7.832,4.055 -16.981,7.188 -29.121,7.188 -15.039,0 -55.399,-7.836 -55.399,-50.157 0,-19.863 16.59,-45.714 54.074,-45.714 6.004,0 21.297,1.82 31.364,8.093 l 0,22.204 z m -120.446,-24.43 c 0,-12.66 -0.781,-28.738 -7.312,-28.738 -3.789,0 -4.832,2.878 -5.879,5.753 -1.047,2.743 -2.227,5.614 -6.531,5.614 -3.528,0 -7.184,-2.871 -6.532,-6.657 1.172,-7.062 8.102,-9.808 14.629,-9.808 17.504,0 23.379,18.035 23.379,32.93 l 0,77.847 c 0,6.012 4.055,6.535 9.278,6.922 l 3.527,0.262 0.52,0.789 0,2.609 -0.649,0.657 c -5.226,0 -13.066,-0.657 -19.598,-0.657 -8.878,0 -13.058,0.657 -16.593,0.657 -0.782,0 -1.957,-0.133 -2.09,-1.575 l 0,-2.082 0.66,-0.66 c 10.973,0 13.191,-1.828 13.191,-9.269 l 0,-74.594"
               inkscape:connector-curvature="0" />
            <path
               id="path3017"
               style="fill:#ffffff;fill-opacity:1;fill-rule:nonzero;stroke:none"
               d="m 1097.06,768.254 -13.31,0 0,-52.734 c 0,-17.84 -5.58,-30.086 -22.78,-30.086 -17.17,0 -22.74,12.246 -22.74,30.086 l 0,52.734 -13.33,0 0,-54.461 c 0,-26.098 13.19,-40.074 36.07,-40.074 22.92,0 36.09,13.976 36.09,40.074 l 0,54.461"
               inkscape:connector-curvature="0" />
            <path
               id="path3019"
               style="fill:#ffffff;fill-opacity:1;fill-rule:nonzero;stroke:none"
               d="m 992.055,833.859 0,-219.875 7.09,0 0,219.875 -7.09,0 0,0"
               inkscape:connector-curvature="0" />
          </g>
        </g>
      </g>
    </g>
  </g>
</svg>
